simulation
nRows=37
nColumns=15
endheader
time  TH_x TH_y TH_z SC_y  SC_z  SC_x  AC_y  AC_z  AC_x  GH_y  GH_z  GH_yy  EL_x  PS_y
0.000000  0.000000  0.000000  0.000000  -31.466709  1.023896  7.884076  51.470676  7.645409  -8.194353  47.761940  -3.631202  -16.198966  22.274170  0.000000
0.010000  0.000000  0.000000  0.000000  -31.428103  0.866268  7.633579  51.576535  7.163389  -8.304853  47.408391  -3.699288  -16.061148  22.286366  0.000000
0.020000  0.000000  0.000000  0.000000  -31.390655  0.714165  7.392966  51.680016  6.698034  -8.411167  47.057438  -3.749833  -15.927568  22.297266  0.000000
0.030000  0.000000  0.000000  0.000000  -31.354353  0.567503  7.162070  51.781151  6.249116  -8.513349  46.709080  -3.783136  -15.798181  22.306889  0.000000
0.040000  0.000000  0.000000  0.000000  -31.319185  0.426199  6.940727  51.879974  5.816411  -8.611452  46.363314  -3.799496  -15.672937  22.315256  0.000000
0.050000  0.000000  0.000000  0.000000  -31.285139  0.290172  6.728773  51.976516  5.399692  -8.705532  46.020140  -3.799207  -15.551790  22.322384  0.000000
0.060000  0.000000  0.000000  0.000000  -31.252203  0.159339  6.526046  52.070810  4.998738  -8.795640  45.679555  -3.782564  -15.434694  22.328295  0.000000
0.070000  0.000000  0.000000  0.000000  -31.220366  0.033618  6.332384  52.162888  4.613326  -8.881832  45.341557  -3.749858  -15.321601  22.333006  0.000000
0.080000  0.000000  0.000000  0.000000  -31.189616  -0.087071  6.147626  52.252780  4.243235  -8.964159  45.006144  -3.701381  -15.212464  22.336538  0.000000
0.090000  0.000000  0.000000  0.000000  -31.159941  -0.202809  5.971614  52.340519  3.888247  -9.042674  44.673315  -3.637421  -15.107239  22.338909  0.000000
0.100000  0.000000  0.000000  0.000000  -31.131329  -0.313675  5.804189  52.426136  3.548141  -9.117430  44.343067  -3.558264  -15.005877  22.340138  0.000000
0.110000  0.000000  0.000000  0.000000  -31.103768  -0.419750  5.645195  52.509662  3.222702  -9.188479  44.015399  -3.464197  -14.908334  22.340244  0.000000
0.120000  0.000000  0.000000  0.000000  -31.077248  -0.521111  5.494474  52.591127  2.911714  -9.255872  43.690307  -3.355502  -14.814564  22.339245  0.000000
0.130000  0.000000  0.000000  0.000000  -31.051756  -0.617837  5.351872  52.670563  2.614961  -9.319662  43.367790  -3.232461  -14.724521  22.337161  0.000000
0.140000  0.000000  0.000000  0.000000  -31.027281  -0.710007  5.217236  52.748000  2.332232  -9.379900  43.047846  -3.095355  -14.638159  22.334010  0.000000
0.150000  0.000000  0.000000  0.000000  -31.003811  -0.797697  5.090412  52.823467  2.063312  -9.436637  42.730471  -2.944461  -14.555434  22.329810  0.000000
0.160000  0.000000  0.000000  0.000000  -30.981335  -0.880984  4.971249  52.896996  1.807993  -9.489923  42.415664  -2.780057  -14.476300  22.324579  0.000000
0.170000  0.000000  0.000000  0.000000  -30.959841  -0.959945  4.859596  52.968616  1.566063  -9.539809  42.103423  -2.602416  -14.400713  22.318336  0.000000
0.180000  0.000000  0.000000  0.000000  -30.939317  -1.034656  4.755303  53.038356  1.337315  -9.586345  41.793744  -2.411813  -14.328628  22.311099  0.000000
0.190000  0.000000  0.000000  0.000000  -30.919754  -1.105192  4.658223  53.106246  1.121541  -9.629582  41.486624  -2.208517  -14.260001  22.302886  0.000000
0.200000  0.000000  0.000000  0.000000  -30.901138  -1.171627  4.568207  53.172315  0.918535  -9.669569  41.182063  -1.992800  -14.194788  22.293714  0.000000
0.210000  0.000000  0.000000  0.000000  -30.883459  -1.234037  4.485110  53.236593  0.728094  -9.706355  40.880055  -1.764928  -14.132944  22.283602  0.000000
0.220000  0.000000  0.000000  0.000000  -30.866706  -1.292494  4.408786  53.299107  0.550012  -9.739989  40.580600  -1.525167  -14.074425  22.272567  0.000000
0.230000  0.000000  0.000000  0.000000  -30.850866  -1.347072  4.339091  53.359888  0.384088  -9.770521  40.283693  -1.273783  -14.019189  22.260627  0.000000
0.240000  0.000000  0.000000  0.000000  -30.835930  -1.397845  4.275882  53.418962  0.230121  -9.797998  39.989332  -1.011038  -13.967191  22.247800  0.000000
0.250000  0.000000  0.000000  0.000000  -30.821885  -1.444884  4.219017  53.476358  0.087911  -9.822470  39.697514  -0.737192  -13.918388  22.234102  0.000000
0.260000  0.000000  0.000000  0.000000  -30.808721  -1.488260  4.168355  53.532105  -0.042740  -9.843983  39.408236  -0.452505  -13.872738  22.219551  0.000000
0.270000  0.000000  0.000000  0.000000  -30.796427  -1.528047  4.123756  53.586229  -0.162030  -9.862587  39.121495  -0.157234  -13.830197  22.204164  0.000000
0.280000  0.000000  0.000000  0.000000  -30.784991  -1.564313  4.085083  53.638759  -0.270155  -9.878327  38.837287  0.148365  -13.790723  22.187958  0.000000
0.290000  0.000000  0.000000  0.000000  -30.774402  -1.597130  4.052196  53.689722  -0.367310  -9.891253  38.555610  0.464038  -13.754273  22.170950  0.000000
0.300000  0.000000  0.000000  0.000000  -30.764650  -1.626567  4.024959  53.739145  -0.453688  -9.901409  38.276460  0.789534  -13.720805  22.153158  0.000000
0.310000  0.000000  0.000000  0.000000  -30.755722  -1.652693  4.003238  53.787056  -0.529481  -9.908844  37.999834  1.124601  -13.690277  22.134597  0.000000
0.320000  0.000000  0.000000  0.000000  -30.747610  -1.675578  3.986897  53.833480  -0.594882  -9.913603  37.725728  1.468991  -13.662648  22.115285  0.000000
0.330000  0.000000  0.000000  0.000000  -30.740300  -1.695289  3.975804  53.878444  -0.650079  -9.915733  37.454138  1.822458  -13.637874  22.095238  0.000000
0.340000  0.000000  0.000000  0.000000  -30.733784  -1.711894  3.969825  53.921976  -0.695262  -9.915278  37.185063  2.184755  -13.615916  22.074473  0.000000
0.350000  0.000000  0.000000  0.000000  -30.728049  -1.725461  3.968831  53.964100  -0.730617  -9.912286  36.918496  2.555639  -13.596731  22.053005  0.000000
0.360000  0.000000  0.000000  0.000000  -30.723085  -1.736055  3.972691  54.004843  -0.756331  -9.906800  36.654436  2.934869  -13.580279  22.030851  0.000000
